# Blender v2.74 (sub 0) OBJ File: ''
# www.blender.org
mtllib directional-generic-marker.mtl
o Box
v 0.499971 -0.131661 -0.005374
v 0.499971 0.131439 -0.005374
v -0.505345 0.131439 -0.494597
v -0.505345 -0.131661 -0.494597
v -0.494597 0.131439 0.505345
v -0.494597 -0.131661 0.505345
v -0.318089 0.130231 0.003419
v -0.321474 -0.131979 0.003455
vt 0.996798 0.999992
vt 0.999988 0.013819
vt 0.003198 0.001197
vt 0.000008 0.987370
vt 0.999992 0.987370
vt 0.996802 0.001197
vt 0.000012 0.013819
vt 0.003202 0.999992
vt -0.000000 0.000008
vt 0.500000 0.996798
vt 0.500000 0.181332
vt 0.500000 0.999988
vt 1.000000 0.003198
vt 0.500000 0.181136
vt 0.000000 0.001197
vt 0.500000 0.002261
vt 0.500000 0.985138
vn -0.010800 0.000000 -0.999900
vn 0.010700 -0.000000 0.999900
vn -0.000000 1.000000 -0.000000
vn 0.000100 -1.000000 -0.000000
vn 0.000000 -1.000000 0.000000
vn -0.000100 -1.000000 0.000000
vn -0.999900 -0.000000 0.010800
vn -0.999900 -0.000000 0.010700
usemtl 407767
s 1
f 2/1/1 1/2/1 4/3/1 3/4/1
f 5/5/2 6/6/2 1/7/2 2/8/2
f 5/9/3 2/10/3 7/11/3
f 1/12/4 6/13/5 8/14/6
f 3/4/7 4/15/8 8/16/8 7/17/8
f 2/10/3 3/9/3 7/11/3
f 8/14/6 4/13/5 1/12/4
f 8/16/8 6/15/7 5/4/8 7/17/8
